<svg xmlns="http://www.w3.org/2000/svg" viewBox="0 0 100 100">
  <defs>
    <linearGradient id="bg" x1="0%" y1="0%" x2="100%" y2="100%">
      <stop offset="0%" style="stop-color:#1976D2;stop-opacity:1" />
      <stop offset="100%" style="stop-color:#0D47A1;stop-opacity:1" />
    </linearGradient>
  </defs>
  <!-- Background -->
  <rect width="100" height="100" rx="15" ry="15" fill="url(#bg)"/>
  <!-- Building/Project Icon -->
  <g fill="white">
    <!-- Main building -->
    <rect x="35" y="35" width="30" height="40" rx="2"/>
    <!-- Windows -->
    <rect x="40" y="40" width="8" height="8" fill="#1976D2"/>
    <rect x="52" y="40" width="8" height="8" fill="#1976D2"/>
    <rect x="40" y="52" width="8" height="8" fill="#1976D2"/>
    <rect x="52" y="52" width="8" height="8" fill="#1976D2"/>
    <!-- Door -->
    <rect x="45" y="62" width="10" height="13" fill="#1976D2"/>
    <!-- Crane arm -->
    <rect x="15" y="20" width="4" height="55" rx="1"/>
    <rect x="15" y="20" width="50" height="4" rx="1"/>
    <!-- Crane hook -->
    <rect x="60" y="24" width="2" height="12"/>
    <path d="M55 36 L67 36 L61 44 Z"/>
    <!-- Progress chart -->
    <rect x="72" y="55" width="5" height="20" rx="1" opacity="0.7"/>
    <rect x="79" y="45" width="5" height="30" rx="1" opacity="0.85"/>
    <rect x="86" y="35" width="5" height="40" rx="1"/>
  </g>
</svg>
